<svg width="12" height="12" viewBox="0 0 12 12" fill="none" xmlns="http://www.w3.org/2000/svg">
<g opacity="0.6">
<path d="M11.655 7.2735C11.742 6.88275 11.787 6.47775 11.787 6.06225C11.787 2.946 9.225 0.41925 6.06375 0.41925C5.73075 0.41925 5.40375 0.44775 5.085 0.50175C4.5735 0.1845 3.96825 0 3.3195 0C1.48575 0 0 1.46475 0 3.273C0 3.87675 0.1665 4.4415 0.456 4.92825C0.38025 5.29425 0.33975 5.67375 0.33975 6.06225C0.33975 9.17925 2.9025 11.706 6.063 11.706C6.4215 11.706 6.77175 11.673 7.1115 11.6115C7.5795 11.859 8.1135 12 8.68125 12C10.5142 12 12 10.5345 12 8.72775C12 8.205 11.8755 7.71225 11.655 7.2735ZM8.99925 8.75925C8.7345 9.129 8.34375 9.4215 7.836 9.6285C7.33425 9.83475 6.7335 9.93975 6.048 9.93975C5.226 9.93975 4.53675 9.79725 3.99825 9.51525C3.6135 9.3105 3.297 9.03375 3.05625 8.69025C2.8125 8.34525 2.69025 8.0025 2.69025 7.671C2.69025 7.46475 2.7705 7.2855 2.92875 7.13925C3.0855 6.993 3.2865 6.92025 3.5265 6.92025C3.723 6.92025 3.8925 6.978 4.0305 7.09275C4.16175 7.203 4.275 7.3665 4.36575 7.57575C4.467 7.80525 4.57725 7.99875 4.6935 8.1495C4.80675 8.29725 4.968 8.42025 5.17425 8.517C5.382 8.613 5.66175 8.66325 6.00525 8.66325C6.4785 8.66325 6.867 8.5635 7.158 8.367C7.44375 8.17575 7.58175 7.94475 7.58175 7.66275C7.58175 7.44075 7.509 7.26525 7.36125 7.128C7.20525 6.984 6.99975 6.87225 6.75075 6.795C6.4905 6.7155 6.13725 6.6285 5.70075 6.5385C5.106 6.41325 4.60125 6.26475 4.20075 6.096C3.7905 5.9235 3.459 5.685 3.2175 5.3865C2.9715 5.08275 2.847 4.7025 2.847 4.2555C2.847 3.8295 2.9775 3.4455 3.2355 3.114C3.49125 2.78475 3.86475 2.5275 4.347 2.35275C4.82175 2.1795 5.3865 2.09175 6.02625 2.09175C6.537 2.09175 6.98625 2.15025 7.362 2.26575C7.73925 2.38125 8.05725 2.53725 8.307 2.73C8.559 2.925 8.7465 3.13125 8.8635 3.34725C8.982 3.56475 9.04275 3.7815 9.04275 3.99075C9.04275 4.1925 8.964 4.37625 8.808 4.53525C8.6505 4.6965 8.4525 4.7775 8.22 4.7775C8.0085 4.7775 7.842 4.72575 7.72725 4.626C7.62 4.53225 7.50825 4.386 7.38525 4.1775C7.24275 3.9105 7.0695 3.69975 6.8715 3.5505C6.67875 3.40575 6.35775 3.33375 5.91525 3.33375C5.50575 3.33375 5.17125 3.41475 4.92375 3.57525C4.68525 3.729 4.569 3.906 4.569 4.116C4.569 4.24425 4.6065 4.3515 4.68375 4.44375C4.76475 4.54275 4.8795 4.6275 5.025 4.6995C5.175 4.77375 5.33025 4.83375 5.4855 4.87575C5.6445 4.91925 5.91075 4.9845 6.2775 5.06775C6.741 5.16525 7.16625 5.2755 7.54275 5.39475C7.9245 5.514 8.253 5.66175 8.523 5.835C8.79675 6.01125 9.0135 6.23625 9.168 6.50625C9.3225 6.7785 9.4005 7.11225 9.4005 7.50075C9.39975 7.965 9.26475 8.38875 8.99925 8.75925Z" fill="white"/>
</g>
</svg>
